<?xml version="1.0" standalone="no"?>
<!DOCTYPE svg PUBLIC "-//W3C//DTD SVG 20010904//EN"
 "http://www.w3.org/TR/2001/REC-SVG-20010904/DTD/svg10.dtd">
<svg version="1.0" xmlns="http://www.w3.org/2000/svg"
 width="1480.000000pt" height="1480.000000pt" viewBox="0 0 1480.000000 1480.000000"
 preserveAspectRatio="xMidYMid meet">
<metadata>
Created by potrace 1.14, written by Peter Selinger 2001-2017
</metadata>
<g transform="translate(0.000000,1480.000000) scale(0.100000,-0.100000)"
fill="#000000" stroke="none">
<path d="M6960 14190 c-151 -9 -361 -29 -379 -35 -8 -3 -53 -10 -100 -15 -47
-6 -111 -15 -141 -21 -30 -5 -80 -14 -110 -19 -30 -5 -77 -13 -105 -19 -27 -5
-90 -17 -139 -26 -49 -9 -107 -22 -130 -29 -46 -15 -107 -31 -163 -45 -157
-38 -601 -184 -748 -245 -59 -25 -131 -54 -175 -71 -108 -41 -538 -244 -569
-269 -7 -6 -48 -30 -90 -53 -110 -61 -160 -90 -211 -123 -25 -16 -76 -47 -115
-70 -38 -22 -101 -63 -140 -91 -38 -27 -107 -75 -153 -105 -45 -30 -107 -75
-137 -99 -30 -25 -59 -45 -64 -45 -6 0 -16 -8 -23 -18 -7 -10 -20 -23 -30 -28
-9 -5 -31 -23 -50 -39 -18 -17 -42 -37 -54 -45 -44 -31 -251 -210 -382 -329
-109 -100 -423 -428 -502 -526 -30 -38 -75 -92 -100 -121 -79 -93 -115 -137
-119 -146 -1 -5 -13 -20 -25 -33 -11 -13 -34 -42 -51 -65 -16 -22 -42 -56 -58
-74 -15 -19 -27 -37 -27 -40 0 -9 -38 -63 -67 -96 -13 -13 -23 -28 -23 -32 0
-3 -6 -13 -13 -20 -7 -7 -30 -40 -52 -73 -53 -79 -55 -83 -89 -146 -16 -30
-32 -56 -36 -59 -4 -3 -17 -23 -29 -45 -12 -22 -42 -74 -66 -115 -24 -41 -74
-133 -110 -205 -37 -71 -72 -136 -77 -143 -15 -18 -172 -361 -203 -442 -7 -19
-23 -60 -34 -90 -12 -30 -29 -75 -37 -100 -8 -25 -21 -56 -28 -70 -18 -33
-134 -386 -157 -475 -9 -38 -33 -131 -52 -205 -20 -74 -52 -218 -72 -320 -20
-102 -40 -201 -45 -220 -5 -19 -14 -80 -20 -135 -6 -55 -16 -138 -21 -185 -24
-203 -29 -258 -40 -492 -15 -309 0 -684 40 -998 5 -41 15 -115 21 -165 20
-164 112 -621 148 -735 6 -19 15 -53 21 -75 39 -151 137 -465 171 -545 10 -25
35 -88 55 -140 37 -96 42 -108 97 -235 60 -139 351 -713 371 -732 4 -4 17 -25
27 -48 18 -36 96 -164 117 -190 17 -22 93 -136 93 -140 0 -9 139 -202 225
-313 33 -43 80 -104 104 -137 90 -121 213 -259 411 -460 200 -203 369 -366
444 -430 33 -28 80 -68 106 -90 62 -54 222 -179 235 -184 10 -4 34 -23 113
-90 42 -35 149 -111 157 -111 4 0 187 -121 195 -130 11 -12 87 -60 110 -70 14
-6 50 -26 80 -45 30 -19 80 -48 110 -65 30 -17 71 -40 90 -52 45 -27 488 -248
497 -248 4 0 41 -15 83 -34 41 -19 104 -46 140 -60 36 -15 73 -32 83 -37 10
-6 57 -23 105 -39 48 -15 98 -33 112 -38 24 -11 351 -114 400 -127 14 -3 57
-15 95 -26 234 -66 495 -122 720 -154 66 -9 140 -21 165 -25 25 -5 88 -14 140
-19 300 -34 623 -45 917 -32 234 11 295 16 503 40 237 28 367 47 420 61 19 5
64 14 100 21 36 6 79 15 95 20 17 4 57 13 90 19 84 16 143 30 195 45 25 8 63
18 85 24 111 28 530 160 605 191 25 10 70 28 100 40 75 30 113 46 200 85 340
152 359 161 530 255 58 32 132 73 165 90 33 18 62 36 65 41 3 4 19 14 35 21
45 19 223 129 270 166 21 16 121 80 145 92 14 7 41 26 60 41 77 62 137 109
166 129 197 138 414 325 717 621 86 84 157 157 157 161 0 5 14 21 31 36 29 26
193 212 255 289 48 60 256 334 287 378 15 22 48 67 72 100 24 33 44 64 44 68
1 5 9 19 19 32 21 28 33 46 73 110 18 28 39 61 48 75 95 141 323 575 444 845
48 106 126 301 150 375 14 43 24 67 53 135 6 17 17 50 24 75 14 55 35 123 65
215 26 78 99 352 115 430 6 28 15 75 21 105 6 30 15 75 20 100 36 167 89 533
89 609 0 23 4 72 10 109 22 151 29 529 14 797 -16 296 -20 348 -34 460 -6 44
-15 116 -21 160 -14 103 -25 177 -39 245 -6 30 -15 78 -19 105 -5 28 -16 79
-24 115 -9 36 -18 76 -20 90 -12 59 -37 161 -61 245 -57 198 -70 244 -99 335
-42 134 -126 362 -192 520 -31 74 -62 149 -68 165 -19 51 -235 475 -287 565
-27 47 -60 105 -75 130 -14 25 -39 65 -55 90 -16 25 -37 59 -46 75 -28 50
-125 196 -171 257 -24 31 -43 61 -43 66 0 5 -7 15 -16 23 -8 7 -32 38 -52 68
-32 50 -90 127 -117 157 -16 18 -87 103 -125 150 -254 314 -647 700 -1004 986
-11 10 -29 25 -38 34 -10 9 -28 24 -42 33 -13 9 -57 41 -97 72 -94 70 -177
129 -184 129 -6 0 -66 40 -75 50 -7 8 -181 124 -200 133 -8 4 -35 21 -60 37
-25 16 -65 41 -90 55 -25 14 -74 44 -110 65 -67 41 -532 277 -585 297 -16 6
-68 28 -115 48 -113 49 -161 68 -310 122 -278 101 -302 109 -575 183 -200 55
-239 64 -475 111 -30 6 -75 15 -100 20 -136 29 -286 51 -490 70 -58 5 -118 12
-135 14 -52 9 -805 13 -925 5z m422 -221 c25 1 27 -2 33 -52 9 -69 4 -101 -16
-105 -11 -2 -22 10 -33 38 -19 48 -60 90 -88 90 -33 0 -77 -29 -95 -63 -24
-44 -23 -170 0 -215 20 -37 71 -72 105 -72 36 0 80 27 97 61 10 19 22 29 33
27 38 -8 -12 -93 -71 -122 -90 -42 -203 -1 -248 90 -49 102 -34 200 42 276 53
53 70 58 154 52 33 -3 72 -5 87 -5z m-342 -23 c0 -18 -6 -25 -22 -28 -30 -4
-33 -34 -18 -174 12 -106 12 -114 -7 -145 -32 -57 -76 -79 -153 -79 -61 0 -70
3 -105 33 l-38 33 -15 145 -16 146 -29 11 c-49 18 -26 35 64 48 46 7 87 10 91
8 17 -11 7 -35 -18 -44 -25 -10 -26 -13 -20 -68 3 -31 9 -92 12 -135 9 -97 31
-127 94 -127 33 0 48 6 71 29 33 33 33 38 18 165 -16 137 -16 136 -49 142 -31
7 -48 32 -26 40 19 7 105 21 139 23 22 1 27 -3 27 -23z m758 12 c15 -15 16
-100 1 -115 -14 -14 -39 -6 -39 12 0 27 -41 65 -71 65 l-29 0 -2 -120 c-4
-219 -5 -204 17 -208 29 -6 45 -21 38 -38 -6 -15 -68 -18 -158 -6 -58 8 -70
33 -20 42 28 5 30 9 37 60 3 30 6 104 7 163 1 89 -2 109 -15 114 -24 9 -60
-13 -75 -46 -10 -21 -21 -31 -36 -31 -21 0 -23 5 -23 53 0 30 3 57 7 60 12 13
348 8 361 -5z m175 -8 c34 0 38 -3 35 -22 -2 -15 -11 -24 -25 -26 -27 -4 -30
-19 -39 -170 -8 -149 -2 -162 81 -162 73 0 85 17 101 138 20 149 19 160 -16
180 -17 9 -29 24 -27 32 2 12 16 14 72 12 39 -2 78 -6 88 -8 25 -8 17 -37 -12
-44 -33 -8 -38 -20 -51 -140 -16 -141 -16 -144 -46 -179 -65 -77 -220 -58
-269 33 -18 32 -18 42 -7 119 7 46 12 109 12 141 0 49 -3 59 -20 63 -12 3 -20
14 -20 26 0 18 4 19 53 13 28 -3 69 -6 90 -6z m489 -61 c94 -17 133 -50 133
-112 0 -51 -25 -86 -75 -107 l-29 -12 41 -76 c51 -98 52 -99 94 -107 44 -8 60
4 67 53 3 20 13 69 22 107 29 125 30 151 6 164 -11 7 -21 19 -21 27 0 20 31
17 195 -20 119 -26 140 -38 128 -66 -3 -8 -8 -27 -11 -42 -3 -21 -10 -28 -28
-28 -18 0 -24 6 -24 23 -1 35 -22 55 -74 68 -26 6 -49 10 -51 7 -2 -2 -11 -30
-20 -63 -12 -46 -12 -61 -2 -67 24 -15 57 -8 81 19 49 53 56 -13 13 -130 -12
-33 -31 -31 -35 4 -5 33 -30 59 -58 59 -25 0 -41 -36 -46 -104 l-3 -38 55 -15
c63 -16 89 -9 116 32 9 14 25 25 36 25 17 0 19 -4 14 -27 -4 -16 -10 -40 -13
-55 -10 -52 -26 -53 -173 -17 -63 15 -124 28 -210 47 l-85 18 -50 99 c-27 55
-55 101 -62 103 -12 3 -20 -28 -25 -98 -2 -28 1 -37 20 -45 39 -17 22 -40 -28
-37 -72 4 -140 22 -140 38 0 8 3 14 8 15 47 5 62 18 62 56 0 13 7 65 15 115 9
51 18 108 21 126 4 28 2 34 -15 39 -12 3 -21 13 -21 22 0 32 -8 32 172 0z
m-1971 -5 c36 -18 63 -75 54 -113 -3 -14 -21 -41 -38 -59 l-32 -34 67 -63 c43
-41 77 -65 95 -67 20 -2 28 -8 28 -23 0 -17 -9 -21 -55 -27 l-55 -7 -80 80
c-106 105 -116 105 -91 -1 11 -48 16 -55 39 -58 33 -4 36 -29 5 -41 -13 -5
-53 -12 -90 -15 -64 -7 -68 -6 -68 13 0 11 9 22 20 26 14 4 19 13 16 28 -3 12
-12 76 -21 142 -20 142 -27 162 -56 167 -38 5 -33 26 8 37 118 31 213 37 254
15z m-313 -51 c34 -90 13 -135 -35 -74 -20 26 -31 31 -65 31 -37 0 -40 -2 -34
-22 4 -13 11 -45 17 -73 6 -27 15 -68 20 -90 5 -22 12 -57 16 -77 6 -43 17
-55 53 -60 14 -1 26 -10 28 -19 2 -12 -10 -19 -45 -28 -26 -7 -64 -16 -84 -22
-54 -14 -69 -11 -69 11 0 13 9 22 25 26 27 7 31 23 16 70 -5 16 -17 65 -26
109 -29 138 -35 155 -51 155 -24 0 -64 -47 -64 -75 0 -24 -3 -27 -31 -29 -14
-1 -43 105 -32 114 7 6 57 18 218 52 28 6 61 14 75 19 44 13 57 10 68 -18z
m-399 -85 c50 -132 36 -173 -31 -94 -31 36 -46 46 -70 46 -58 0 -90 -58 -50
-92 9 -8 53 -20 96 -27 95 -15 112 -24 137 -73 25 -49 24 -78 -4 -118 -32 -48
-76 -71 -139 -72 -29 -1 -55 -4 -58 -8 -6 -9 -178 -70 -196 -70 -19 0 -18 36
1 44 22 8 19 22 -13 57 l-28 31 -62 -22 c-64 -23 -66 -26 -56 -79 6 -26 11
-31 35 -31 19 0 29 -5 29 -14 0 -20 -11 -26 -120 -64 l-95 -33 -57 41 c-31 22
-60 40 -63 40 -4 0 -20 10 -37 21 -43 31 -53 13 -26 -52 26 -63 31 -68 64 -61
18 3 24 0 24 -12 0 -19 -117 -76 -156 -76 -30 0 -30 7 -2 37 19 20 20 26 8 50
-17 37 -25 57 -50 122 -48 125 -58 141 -90 141 -22 0 -30 5 -30 18 0 12 28 28
108 60 129 50 160 52 204 13 28 -25 33 -36 33 -74 0 -34 -6 -52 -24 -71 -14
-14 -23 -27 -20 -29 28 -20 93 -59 127 -76 76 -39 90 -10 93 189 1 47 4 114 8
150 9 100 24 93 170 -82 98 -118 128 -148 148 -148 20 0 24 4 18 18 -40 97
-22 123 42 60 35 -34 48 -41 82 -41 45 0 81 24 81 54 0 10 -10 30 -23 44 -18
22 -33 27 -87 32 -79 7 -115 24 -140 66 -25 41 -25 73 0 115 28 46 76 72 132
72 26 0 50 5 53 10 10 17 25 11 34 -12z m3561 -61 c43 -15 66 -28 68 -39 3
-14 -4 -18 -30 -18 l-33 0 -42 -133 c-59 -187 -57 -174 -35 -186 11 -6 37 -13
59 -17 35 -5 44 -2 75 25 55 48 78 38 53 -23 -29 -69 10 -39 141 108 93 104
135 144 149 143 19 -2 20 -11 25 -204 5 -217 8 -229 59 -235 28 -3 37 12 96
147 21 50 42 94 47 100 13 15 9 52 -7 59 -17 6 -20 32 -6 40 11 7 198 -78 224
-102 11 -9 25 -29 33 -44 21 -40 -5 -94 -55 -116 l-37 -17 18 -30 c26 -44 23
-85 -11 -125 -27 -33 -33 -35 -87 -35 -34 0 -74 7 -94 17 -138 65 -212 98
-220 98 -6 0 -18 4 -28 9 -9 5 -30 14 -45 20 -34 14 -31 35 7 39 26 3 27 6 24
49 -3 46 -6 50 -58 71 -55 23 -59 22 -87 -14 l-27 -36 24 -18 c27 -21 22 -57
-8 -45 -26 12 -204 70 -319 106 -82 25 -103 35 -103 49 0 14 9 20 31 22 33 3
35 6 98 212 26 85 26 87 1 109 -12 10 -18 22 -15 27 9 15 42 11 115 -13z
m-4613 -343 c12 -21 22 -45 22 -51 1 -19 -33 -16 -71 6 -33 19 -34 19 -80 -3
-27 -11 -48 -26 -48 -32 0 -22 51 -114 63 -114 30 0 57 31 57 66 0 26 4 34 18
34 12 0 28 -22 50 -68 18 -38 32 -74 32 -80 0 -19 -34 -14 -53 9 -14 16 -25
19 -45 14 -46 -11 -48 -21 -17 -85 27 -56 31 -60 62 -60 25 0 33 -4 33 -17 0
-12 -23 -28 -70 -50 -39 -18 -76 -33 -83 -33 -25 0 -27 13 -6 36 l22 23 -44
93 c-92 193 -92 193 -127 190 -26 -3 -32 0 -32 15 1 13 38 36 138 85 75 36
142 65 147 64 6 -1 20 -20 32 -42z m-340 -120 c3 -8 -4 -25 -17 -39 l-23 -24
87 -155 c47 -85 86 -159 86 -165 0 -21 -33 -19 -87 5 -85 38 -140 63 -212 95
-35 16 -66 28 -68 26 -4 -4 20 -49 76 -145 26 -44 30 -47 75 -50 63 -4 58 -24
-14 -64 -30 -16 -59 -34 -65 -39 -5 -5 -17 -9 -27 -9 -10 0 -18 -6 -18 -12 0
-7 -21 -25 -48 -40 -26 -15 -62 -37 -79 -49 -29 -19 -34 -19 -39 -5 -4 10 1
25 11 36 16 18 15 22 -21 82 -116 191 -142 224 -166 200 -13 -13 -38 -5 -38
13 0 14 133 105 154 105 24 0 27 -16 6 -40 -23 -26 -28 -13 75 -179 68 -109
71 -112 100 -107 32 6 75 50 75 78 0 9 -30 68 -66 132 l-65 116 -45 0 c-38 0
-44 3 -44 20 0 11 8 23 18 27 9 3 29 15 44 25 26 18 59 24 71 12 9 -10 281
-132 285 -129 5 5 -78 154 -96 171 -10 11 -25 14 -49 9 -30 -5 -33 -4 -33 20
0 14 4 25 10 25 5 0 35 16 67 35 67 39 71 41 80 19z m6098 -5 c59 -28 102 -80
116 -143 10 -45 8 -58 -12 -111 -28 -77 -88 -139 -149 -155 -114 -31 -221 35
-250 155 -11 45 -10 56 9 106 53 139 173 201 286 148z m-2715 -19 c193 -13
430 -39 560 -60 349 -58 621 -124 955 -234 335 -111 695 -274 1070 -486 177
-100 502 -328 740 -520 125 -101 391 -344 460 -421 22 -25 77 -86 122 -136
264 -290 554 -678 733 -979 122 -205 274 -517 370 -762 122 -310 278 -864 325
-1147 8 -55 20 -125 25 -155 10 -59 22 -158 41 -335 7 -66 12 -276 12 -525 1
-449 -3 -509 -62 -892 -73 -468 -269 -1081 -486 -1518 -150 -302 -314 -562
-578 -920 -126 -170 -222 -285 -398 -476 -118 -129 -185 -195 -389 -383 -242
-224 -804 -618 -1130 -793 -691 -372 -1330 -578 -2050 -663 -415 -48 -773 -59
-1070 -30 -581 55 -948 123 -1360 254 -597 188 -1148 471 -1735 892 -832 595
-1525 1449 -1916 2361 -196 458 -324 925 -389 1423 -39 293 -50 484 -46 750 9
553 63 971 185 1435 11 41 29 111 41 155 49 186 150 477 238 685 283 674 687
1267 1232 1810 455 454 908 783 1445 1053 720 361 1461 564 2255 616 182 12
632 12 800 1z m3042 -170 c93 -57 148 -111 148 -147 0 -60 -56 -113 -120 -113
-30 0 -30 0 -30 -57 0 -64 16 -134 34 -146 21 -14 59 4 207 103 82 55 155 100
164 100 17 0 21 -55 6 -92 -5 -13 -21 -75 -36 -138 -14 -63 -31 -127 -36 -142
-8 -20 -7 -32 6 -52 17 -26 13 -46 -8 -46 -7 1 -43 23 -80 51 -68 50 -79 76
-28 66 24 -5 29 -1 39 27 19 50 15 60 -32 94 -53 38 -62 39 -101 7 -28 -23
-28 -25 -12 -43 20 -22 23 -52 5 -52 -7 0 -53 29 -103 65 -101 72 -102 73
-104 202 -1 112 -21 121 -71 29 -23 -43 -23 -46 -7 -64 22 -24 22 -42 1 -42
-24 0 -154 82 -154 97 0 13 10 16 46 14 17 -2 35 20 86 101 108 171 105 164
84 187 -17 19 -15 41 4 41 5 0 46 -23 92 -50z m-7154 -295 c24 -38 29 -65 11
-65 -7 0 -29 5 -50 12 -35 10 -42 9 -79 -16 -22 -14 -40 -31 -40 -36 0 -20 72
-110 83 -103 38 21 47 36 41 74 -5 31 -3 39 9 39 21 0 110 -118 103 -136 -7
-18 -30 -18 -46 1 -16 20 -40 19 -68 -4 l-24 -18 42 -56 c24 -31 48 -57 54
-57 15 0 77 44 93 67 9 11 11 34 7 70 -6 44 -4 53 9 53 19 0 80 -85 75 -104
-4 -17 -256 -206 -275 -206 -18 0 -16 30 2 50 16 18 6 36 -118 203 -48 65 -53
68 -83 63 -23 -5 -33 -2 -37 8 -4 10 32 43 116 105 67 50 129 90 137 90 8 1
25 -15 38 -34z m7840 -179 c59 -47 123 -98 142 -114 l34 -29 -34 -47 c-47 -62
-65 -57 -65 18 0 47 -4 61 -20 72 -19 13 -27 6 -115 -106 -52 -65 -96 -126
-98 -134 -2 -9 3 -23 12 -31 15 -16 12 -45 -5 -45 -19 0 -149 115 -149 132 0
20 20 24 37 7 6 -6 19 -8 29 -5 22 8 199 229 199 248 0 23 -51 33 -95 18 -63
-21 -71 -2 -24 54 21 25 40 46 42 46 2 0 52 -38 110 -84z m-8124 -60 c25 -30
46 -59 46 -65 0 -23 -29 -22 -60 0 -45 34 -105 32 -136 -4 -41 -48 -30 -114
33 -193 62 -78 160 -99 214 -45 25 26 29 37 29 85 0 43 4 56 15 56 19 0 35
-31 35 -70 0 -69 -61 -142 -143 -171 -30 -11 -46 -11 -85 -1 -120 32 -203 161
-180 278 11 53 66 117 118 138 22 9 40 23 40 31 0 29 28 14 74 -39z m8399
-187 c77 -21 146 -111 147 -190 0 -49 -44 -132 -93 -174 -137 -117 -337 -32
-337 144 0 56 23 106 73 159 60 64 129 84 210 61z m-8726 -173 c206 -102 199
-99 243 -92 61 10 52 -20 -25 -88 -54 -48 -66 -54 -72 -40 -3 9 -1 25 6 35 10
17 6 22 -34 41 l-46 22 -44 -44 -43 -45 15 -38 c16 -39 21 -40 65 -22 12 5 20
2 24 -10 5 -11 -9 -30 -47 -65 -30 -27 -59 -49 -65 -50 -7 0 -11 19 -10 53 0
30 -4 65 -10 78 -22 46 -43 94 -68 162 -14 37 -33 83 -42 102 -17 37 -13 65
10 65 8 0 72 -29 143 -64z m9059 -128 c37 -40 75 -86 85 -103 59 -96 -33 -193
-142 -150 -13 5 -18 -3 -23 -42 -16 -109 -18 -161 -7 -167 17 -11 13 -36 -6
-36 -9 0 -32 14 -50 32 -35 34 -41 65 -24 124 5 17 12 58 16 92 9 76 -2 79
-63 18 -39 -38 -43 -45 -31 -63 7 -11 9 -29 5 -39 -6 -15 -17 -8 -73 48 -43
44 -64 71 -60 81 5 13 11 14 36 4 29 -11 32 -8 136 88 59 54 110 105 113 113
3 8 0 23 -7 34 -13 21 -7 38 14 38 7 0 43 -33 81 -72z m-9306 -40 c18 -13 40
-40 48 -62 18 -46 7 -89 -39 -147 l-29 -37 45 -41 c49 -45 57 -48 75 -27 13
16 40 11 40 -8 0 -18 -114 -126 -133 -126 -20 0 -20 1 -5 35 10 23 8 29 -28
66 -21 23 -74 73 -117 111 -75 67 -79 69 -102 54 -12 -8 -25 -12 -29 -9 -17
17 1 45 72 115 103 103 141 117 202 76z m9558 -229 c28 -33 52 -67 52 -75 0
-17 -31 -19 -48 -2 -15 15 -14 16 -45 -64 l-25 -68 29 0 c27 0 119 19 127 26
2 1 -2 12 -8 24 -9 17 -9 25 0 34 9 8 24 -2 61 -44 53 -60 53 -59 40 -79 -8
-12 -12 -12 -25 -2 -11 9 -34 12 -78 8 -151 -14 -181 -24 -240 -80 -24 -22
-26 -30 -18 -52 27 -71 -13 -59 -84 26 -43 53 -55 74 -47 82 9 9 16 8 31 -1
31 -19 45 -15 92 31 53 52 103 175 102 250 -1 65 18 62 84 -14z m-9823 -44
c39 -34 47 -47 38 -56 -9 -9 -22 -9 -56 0 -59 17 -86 12 -110 -21 -17 -23 -19
-32 -9 -52 19 -41 51 -42 130 -2 96 49 132 48 183 -3 35 -35 39 -44 39 -91 0
-50 -2 -54 -60 -111 -33 -32 -60 -63 -60 -69 0 -21 -34 -8 -81 31 -65 54 -65
74 -1 63 70 -11 102 -7 129 18 34 32 28 76 -14 101 l-32 18 -71 -36 c-40 -20
-84 -37 -99 -37 -74 -1 -125 56 -118 131 4 38 13 52 56 93 28 26 51 52 51 58
0 22 38 7 85 -35z m-1465 -3684 c0 -81 31 -145 85 -173 11 -6 52 -14 93 -18
100 -10 113 -24 32 -34 -69 -9 -118 -23 -144 -39 -33 -22 -59 -83 -64 -150 -6
-72 -19 -82 -27 -20 -17 125 -57 183 -135 197 -19 3 -52 9 -73 12 -58 10 -53
22 10 29 143 16 179 54 198 208 8 60 25 52 25 -12z m12668 -118 c23 -42 70
-65 148 -73 97 -10 116 -25 44 -34 -160 -20 -190 -44 -217 -175 -18 -85 -33
-97 -33 -27 0 64 -27 133 -64 160 -18 14 -60 28 -103 36 -40 7 -73 17 -73 21
0 4 21 10 48 14 143 18 191 68 192 201 0 69 14 59 31 -23 8 -43 21 -88 27
-100z m-9999 -5305 c67 -51 73 -59 59 -75 -7 -9 -15 -10 -29 -2 -11 5 -24 7
-30 3 -21 -12 -159 -206 -165 -231 -14 -56 76 -119 132 -91 27 13 130 135 160
191 13 25 13 30 -1 49 -8 13 -15 28 -15 35 0 24 31 13 94 -34 34 -27 83 -62
108 -79 l45 -31 6 -84 c4 -46 7 -121 7 -166 0 -45 4 -84 8 -87 12 -7 112 151
112 178 0 13 -7 29 -15 36 -19 16 -19 29 -1 36 8 3 35 -8 59 -25 25 -17 64
-41 88 -54 88 -46 144 -81 167 -100 12 -11 22 -17 22 -14 0 6 215 -100 300
-147 14 -8 54 -26 90 -41 161 -66 220 -95 220 -105 0 -5 -7 -28 -16 -50 -11
-27 -22 -40 -35 -40 -18 0 -23 12 -31 64 -3 20 -43 48 -84 60 -18 6 -25 -1
-41 -36 -37 -79 -37 -85 -2 -97 28 -10 35 -8 54 9 22 20 55 27 55 11 0 -5 -13
-40 -29 -78 -21 -49 -35 -68 -48 -68 -13 0 -19 10 -23 38 -4 28 -12 41 -32 52
-27 14 -28 13 -48 -33 -39 -87 -38 -96 14 -120 59 -28 78 -28 114 3 29 25 52
31 65 19 8 -8 -52 -124 -64 -124 -4 0 -10 4 -13 9 -3 5 -17 12 -30 15 -13 3
-57 21 -97 40 -41 19 -95 43 -121 54 -59 26 -65 52 -12 52 31 0 37 4 51 38 8
20 23 55 33 77 37 83 70 165 70 174 0 6 -9 15 -19 21 -17 9 -22 5 -37 -25 -24
-52 -48 -43 -52 18 -2 37 -8 51 -28 64 -15 9 -29 12 -33 7 -15 -15 -141 -268
-141 -281 0 -7 9 -18 20 -25 21 -14 26 -33 11 -43 -17 -10 -181 78 -181 97 0
14 8 17 37 15 l37 -2 72 140 c66 128 71 141 56 153 -20 16 -68 9 -92 -13 -39
-35 -68 -2 -35 41 21 28 18 41 -10 46 -15 3 -30 -1 -38 -11 -18 -21 -147 -251
-147 -262 0 -5 9 -13 20 -19 25 -14 26 -40 1 -40 -28 0 -161 79 -161 96 0 10
10 14 35 12 19 -1 36 0 38 2 16 22 147 260 147 267 0 18 -35 41 -72 48 l-37 7
-97 -148 c-53 -82 -97 -150 -99 -152 -1 -1 -9 0 -18 4 -17 6 -25 67 -36 277
l-6 121 -52 -80 c-74 -113 -79 -128 -59 -158 18 -28 21 -56 6 -56 -19 0 -150
93 -150 106 0 10 14 14 43 14 48 1 42 -6 136 143 61 96 61 97 46 127 -9 17
-27 33 -42 36 -30 8 -38 1 -137 -130 -67 -89 -102 -110 -168 -99 -33 5 -54 18
-95 59 -48 47 -53 57 -53 96 0 38 9 56 85 158 55 74 83 120 79 130 -27 64 -3
67 75 8z m7259 -67 c15 -10 87 -55 161 -100 118 -71 139 -80 168 -75 53 10 42
-18 -28 -71 -34 -26 -67 -49 -75 -52 -22 -8 -29 26 -8 42 11 7 17 15 14 17
-26 21 -70 48 -80 48 -6 0 -30 -15 -53 -32 -23 -18 -44 -34 -46 -35 -2 -2 2
-21 9 -44 13 -40 14 -40 52 -34 57 10 49 -15 -22 -70 -70 -54 -101 -56 -75 -5
12 23 13 38 6 67 -14 54 -34 124 -65 233 -9 30 -19 72 -23 93 -5 33 -4 37 17
37 12 0 34 -8 48 -19z m-168 -181 c35 -52 38 -60 23 -68 -12 -7 -28 -2 -62 19
-24 16 -56 29 -69 29 -36 0 -82 -52 -82 -92 0 -115 87 -218 183 -218 68 1 107
44 107 119 0 49 24 57 41 14 21 -56 -32 -152 -103 -188 -17 -8 -54 -15 -83
-15 -93 0 -177 74 -211 186 -13 42 -12 54 1 99 8 27 23 60 34 72 25 30 90 73
110 73 9 0 24 9 34 20 22 26 28 22 77 -50z m-340 -147 c0 -9 -7 -24 -16 -34
-15 -16 -13 -22 20 -81 20 -35 56 -94 80 -133 42 -68 44 -70 80 -67 27 2 36
-1 36 -12 0 -16 -37 -42 -120 -87 -25 -13 -48 -29 -52 -34 -4 -6 -29 -21 -55
-34 l-49 -22 -87 45 c-81 43 -127 57 -127 39 0 -5 13 -30 28 -58 25 -45 31
-50 60 -47 25 2 32 -2 32 -15 0 -12 -24 -31 -73 -56 -39 -20 -78 -37 -84 -37
-18 0 -16 20 4 43 17 18 15 24 -52 154 -39 74 -74 137 -80 141 -5 3 -21 6 -35
6 -14 1 -25 7 -25 15 0 18 200 121 237 121 83 0 134 -88 93 -160 -8 -14 -14
-28 -15 -32 0 -4 33 -24 72 -43 91 -44 134 -45 166 -5 l23 29 -78 130 c-77
129 -78 130 -115 131 -69 0 -59 19 46 82 69 41 86 45 86 21z m-537 -336 c9
-23 17 -46 17 -50 0 -12 -35 -8 -56 8 -10 8 -30 14 -44 14 -28 0 -93 -30 -93
-42 0 -20 47 -117 57 -117 29 0 56 32 56 66 0 26 4 34 18 34 12 0 27 -22 50
-71 17 -39 29 -75 26 -80 -9 -15 -30 -10 -49 11 -21 23 -43 25 -67 6 -23 -17
-23 -15 8 -81 30 -63 42 -66 107 -34 54 28 51 22 57 82 7 73 29 73 57 0 25
-63 22 -73 -30 -94 -18 -7 -75 -32 -127 -57 -111 -51 -150 -61 -150 -40 0 8 9
23 19 32 22 20 22 20 -27 126 -17 36 -42 91 -56 123 -24 56 -27 58 -55 52 -29
-6 -47 11 -33 31 10 14 254 123 277 123 14 1 25 -11 38 -42z m-333 -112 c0 -9
-7 -18 -15 -21 -20 -8 -19 -37 5 -103 83 -233 75 -216 106 -216 38 0 48 -40
12 -48 -13 -2 -51 -15 -85 -28 -46 -18 -65 -21 -73 -13 -9 9 -5 18 15 36 l26
24 -16 50 c-9 27 -20 58 -25 69 -5 11 -17 45 -27 75 l-18 55 -2 -145 c-3 -167
-7 -190 -31 -190 -9 0 -61 53 -117 119 -55 66 -101 118 -103 116 -2 -1 9 -33
23 -71 15 -38 35 -89 44 -114 16 -41 21 -45 53 -48 40 -3 57 -27 29 -41 -9 -5
-46 -19 -82 -31 -35 -12 -73 -25 -84 -29 -36 -15 -89 -30 -127 -37 -34 -6 -38
-4 -38 15 0 12 6 21 15 21 22 0 18 26 -7 61 -24 32 -39 33 -116 6 -31 -11 -33
-13 -30 -57 3 -40 5 -45 28 -45 15 0 26 -6 28 -17 2 -13 -13 -21 -68 -38 -39
-11 -75 -18 -80 -15 -16 10 -12 29 9 42 23 14 26 34 46 243 9 91 20 169 25
174 17 17 39 -5 154 -158 102 -137 119 -156 144 -156 22 0 72 30 72 43 0 1
-12 34 -26 72 -14 39 -35 97 -46 130 -26 75 -34 85 -69 85 -31 0 -42 10 -30
28 7 11 109 52 129 52 5 0 52 -49 103 -109 52 -60 95 -109 96 -108 1 1 3 67 5
147 l4 145 54 22 c65 26 90 29 90 8z m-4311 -45 c137 -49 186 -90 211 -176 23
-78 -33 -199 -111 -240 -46 -23 -145 -18 -236 14 -84 29 -117 48 -107 63 3 5
16 9 28 9 25 0 40 14 48 45 3 11 23 65 43 120 51 139 50 134 26 156 -22 20
-20 39 3 39 7 0 50 -13 95 -30z m595 -185 c20 -14 46 -24 59 -22 19 2 22 -2
20 -28 -4 -59 -15 -104 -29 -116 -20 -16 -31 -4 -37 42 -7 53 -36 93 -71 97
-37 5 -56 -14 -56 -54 0 -28 8 -39 60 -79 88 -67 109 -120 75 -186 -36 -69
-133 -90 -210 -45 -27 16 -50 23 -65 19 -21 -6 -22 -4 -17 38 10 82 21 114 42
114 15 0 21 -10 27 -45 10 -57 36 -92 76 -102 40 -11 68 3 76 36 10 39 -7 66
-65 111 -30 22 -63 57 -74 77 -18 35 -19 39 -4 80 12 32 26 49 55 65 51 29 93
29 138 -2z m318 -73 c76 -16 141 -31 144 -35 4 -4 1 -32 -6 -62 -10 -40 -18
-55 -31 -55 -18 0 -29 19 -29 49 0 21 -27 48 -54 53 -21 3 -26 -9 -46 -107 -6
-33 -15 -76 -20 -95 -5 -19 -11 -54 -15 -77 -6 -40 -5 -44 19 -53 26 -10 35
-34 16 -45 -6 -3 -25 -2 -43 4 -17 5 -58 15 -89 22 -44 9 -58 16 -58 30 0 13
9 19 32 21 35 3 36 6 67 163 7 33 17 79 23 102 6 23 7 46 3 52 -13 21 -57 11
-85 -19 -52 -56 -73 -33 -49 54 12 45 -4 45 221 -2z m2427 1 c8 -17 15 -62 12
-90 -2 -22 -22 -15 -52 18 -27 29 -31 31 -81 24 -29 -4 -56 -10 -60 -14 -4 -4
-3 -22 2 -41 6 -19 10 -47 10 -62 0 -20 5 -28 18 -28 40 0 60 13 69 43 5 18
16 33 24 35 17 3 32 -40 45 -125 5 -38 3 -43 -13 -43 -11 0 -26 11 -33 25 -10
19 -21 25 -46 25 -18 0 -36 -5 -39 -11 -4 -5 -1 -39 6 -75 12 -61 14 -64 42
-64 24 0 28 -4 25 -22 -2 -19 -12 -24 -58 -32 -80 -13 -123 -13 -127 1 -3 7 7
17 21 23 14 5 26 13 26 17 0 15 -41 239 -51 275 -8 30 -15 37 -37 40 -19 2
-27 9 -27 22 0 17 18 23 135 47 163 33 177 34 189 12z m-2071 -90 c11 -40 21
-82 48 -203 26 -119 35 -144 62 -166 30 -24 22 -44 -16 -43 -47 1 -146 25
-149 36 -5 13 15 27 37 28 15 0 15 7 3 66 -4 23 -11 28 -54 33 -27 4 -56 9
-63 12 -10 4 -22 -8 -36 -35 l-21 -41 26 -12 c14 -6 25 -19 25 -30 0 -20 -26
-22 -110 -10 -36 6 -45 11 -45 27 0 12 9 21 25 25 25 6 31 15 199 313 13 21
29 37 40 37 12 0 21 -12 29 -37z m1636 12 c82 -39 136 -164 113 -259 -10 -42
-39 -90 -67 -114 -29 -25 -95 -52 -128 -52 -44 0 -116 35 -151 75 -154 176 27
448 233 350z m-1224 -25 c118 -6 262 -12 320 -13 l105 -2 3 -53 c2 -42 0 -54
-14 -59 -12 -4 -21 0 -28 11 -30 51 -41 58 -95 59 l-53 2 -1 -65 -1 -65 34 0
c28 0 37 5 48 28 14 28 37 36 44 15 2 -7 2 -48 0 -90 -4 -88 -21 -104 -46 -43
-13 31 -19 35 -51 35 l-36 0 3 -72 3 -73 66 -3 67 -3 26 46 c38 64 56 60 56
-14 0 -39 -5 -63 -15 -71 -20 -17 -322 -10 -337 8 -13 15 -2 28 27 34 19 3 20
11 20 168 l0 165 -27 3 c-26 3 -28 1 -28 -37 0 -22 -5 -43 -10 -46 -15 -9 -40
14 -40 35 0 22 -45 60 -70 60 -18 0 -22 -20 -36 -231 l-7 -97 28 -13 c48 -24
34 -34 -50 -37 -99 -4 -125 2 -125 28 0 15 7 20 29 20 29 0 29 1 40 83 5 45
12 119 14 165 l4 82 -34 0 c-27 0 -37 -7 -55 -35 -32 -48 -53 -42 -53 15 1 64
10 81 37 76 13 -3 120 -10 238 -16z m680 -10 c9 -5 19 -5 26 1 6 5 19 6 28 3
14 -5 16 -19 14 -78 -4 -87 -20 -93 -57 -22 -29 56 -61 73 -105 56 -24 -9 -27
-15 -24 -47 3 -40 3 -40 126 -94 41 -18 58 -32 73 -61 24 -46 24 -52 -1 -103
-28 -59 -86 -90 -148 -80 -26 4 -63 7 -82 7 -19 -1 -38 4 -42 11 -4 7 -8 40
-8 75 0 56 2 62 20 62 13 0 24 -10 31 -27 19 -50 59 -83 100 -83 45 0 69 21
69 59 0 37 -22 55 -105 88 -102 41 -137 102 -100 174 22 42 71 69 125 69 25 0
52 -4 60 -10z"/>
<path d="M8402 13785 c-16 -87 -17 -85 27 -85 46 0 81 35 81 79 0 32 -8 44
-37 60 -46 24 -58 16 -71 -54z"/>
<path d="M6347 13844 c-5 -5 -3 -32 9 -111 4 -28 9 -33 33 -33 16 0 36 9 47
21 25 28 24 95 -2 114 -19 14 -75 20 -87 9z"/>
<path d="M5310 13445 l0 -57 38 7 c20 4 39 8 41 10 5 5 -33 56 -58 79 l-21 19
0 -58z"/>
<path d="M4898 13433 c-10 -2 -18 -10 -18 -17 0 -22 47 -130 59 -134 16 -5 71
53 71 75 0 10 -9 33 -20 51 -20 32 -42 38 -92 25z"/>
<path d="M9643 13390 c-18 -20 -33 -40 -33 -43 0 -5 57 -27 71 -27 5 0 9 25 9
55 0 30 -3 55 -7 54 -5 0 -23 -18 -40 -39z"/>
<path d="M10035 13305 c-14 -31 -25 -57 -25 -59 0 -2 14 -9 31 -16 24 -10 35
-10 53 0 24 12 46 49 46 75 0 16 -47 55 -66 55 -7 0 -25 -25 -39 -55z"/>
<path d="M9965 13149 c-39 -82 -30 -109 35 -109 42 0 65 20 74 66 6 25 2 37
-16 57 -13 14 -33 28 -45 32 -19 5 -26 -1 -48 -46z"/>
<path d="M10381 13169 c-68 -41 -114 -123 -115 -206 -1 -72 28 -103 95 -103
42 0 53 5 85 37 70 69 104 190 68 241 -16 23 -64 52 -86 52 -7 0 -28 -9 -47
-21z"/>
<path d="M7155 12864 c-22 -2 -98 -8 -170 -14 -607 -47 -1158 -175 -1750 -407
-202 -79 -502 -231 -770 -390 -161 -95 -456 -311 -670 -490 -174 -145 -483
-455 -631 -633 -459 -551 -760 -1092 -977 -1755 -99 -305 -110 -343 -177 -640
-5 -22 -14 -67 -20 -100 -6 -33 -15 -82 -21 -110 -17 -90 -42 -275 -61 -455
-17 -159 -17 -718 0 -895 26 -282 47 -448 71 -575 5 -25 14 -73 20 -107 43
-240 152 -592 273 -878 73 -173 256 -530 364 -713 52 -86 94 -160 94 -164 0
-15 21 -8 133 46 263 126 461 196 882 311 118 33 110 31 455 106 191 41 615
102 905 129 66 6 156 15 200 20 44 5 238 15 430 22 538 18 1152 -8 1670 -72
44 -5 134 -16 200 -24 425 -52 932 -148 1460 -277 233 -56 243 -59 525 -151
598 -195 1318 -529 1768 -821 l94 -60 56 63 c32 34 69 81 85 103 l27 40 0 731
c0 402 4 736 8 742 4 5 66 46 137 89 72 43 141 87 155 98 l25 19 5 560 5 560
24 19 c30 24 69 24 101 -1 l25 -19 5 -548 5 -548 68 -3 67 -3 0 -345 c0 -324
1 -345 18 -342 18 3 157 272 227 438 47 111 149 408 181 529 40 150 42 155 83
346 55 248 68 335 102 670 17 159 17 717 1 860 -35 302 -42 351 -102 690 -45
258 -224 821 -361 1137 -46 108 -189 389 -254 503 -109 189 -399 594 -554 775
-31 36 -60 70 -66 77 -5 7 -80 86 -165 175 -399 419 -780 716 -1266 986 -274
152 -351 188 -664 314 -591 238 -1283 372 -1975 382 -143 2 -278 2 -300 0z
m283 -430 c34 -23 31 -95 -4 -123 -15 -12 -38 -21 -51 -21 -30 0 -83 51 -83
80 0 12 13 35 29 51 33 33 74 38 109 13z m856 -273 c19 -21 14 -62 -9 -81 -24
-20 -78 -8 -94 21 -13 24 -13 29 2 53 21 32 75 36 101 7z m810 -14 c24 -17 18
-75 -9 -93 -52 -34 -105 54 -53 90 27 19 39 20 62 3z m-3646 -49 c6 -6 12 -23
12 -39 0 -53 -75 -79 -104 -37 -22 31 -20 45 9 74 26 25 52 26 83 2z m566 16
c51 -19 35 -94 -19 -94 -53 0 -73 43 -38 82 17 19 31 22 57 12z m587 -55 c64
-34 26 -131 -45 -113 -50 12 -55 86 -8 113 22 13 29 13 53 0z m-1877 -468 c26
-29 18 -82 -16 -101 -25 -13 -31 -13 -55 0 -56 31 -35 120 27 120 15 0 35 -9
44 -19z m3214 -53 c15 -15 17 -474 2 -512 l-10 -26 -139 0 c-115 0 -150 -4
-193 -20 -109 -40 -168 -120 -168 -225 0 -68 20 -144 103 -390 141 -416 377
-1135 394 -1196 16 -60 17 -183 18 -1824 0 -968 -1 -1818 -3 -1889 l-3 -129
-76 7 c-145 12 -201 25 -206 49 -3 12 -6 600 -7 1307 0 707 -3 1308 -6 1335
-8 65 -26 92 -66 100 -61 13 -217 66 -223 75 -3 5 -26 67 -50 137 -24 71 -56
160 -71 198 -15 39 -60 165 -100 280 -40 116 -94 271 -119 345 -127 363 -244
721 -255 775 -8 43 -10 230 -8 655 4 514 6 601 20 641 58 165 178 273 342 305
86 17 807 19 824 2z m1356 6 c15 -6 16 -301 16 -3251 l0 -3246 -48 6 c-26 3
-79 16 -118 29 l-69 23 -3 1348 -2 1347 -55 0 -55 0 -1 -637 c0 -351 -1 -951
-2 -1333 l-2 -695 -54 2 c-30 2 -65 10 -77 18 l-24 15 0 1315 0 1315 -55 0
-55 0 0 -1298 c0 -885 -3 -1301 -10 -1308 -13 -13 -200 26 -225 46 -13 11 -15
331 -15 3155 0 1728 3 3145 7 3148 8 9 826 9 847 1z m1374 -2681 c1 -1661 -2
-2683 -7 -2683 -12 0 -149 93 -347 236 -211 151 -204 148 -356 145 -118 -2
-127 -1 -137 18 -12 22 -16 4953 -4 4964 3 4 196 6 427 5 l421 -3 3 -2682z
m-4997 2027 c27 -15 24 -34 -12 -64 -33 -28 -58 -33 -77 -14 -15 15 -15 29 -2
62 7 20 16 26 40 26 17 0 40 -5 51 -10z m-1144 -272 c19 -16 16 -29 -14 -60
-28 -30 -61 -36 -81 -16 -34 34 8 105 56 93 15 -4 33 -11 39 -17z m-1089 -264
c44 -31 17 -104 -39 -104 -36 0 -59 24 -59 60 0 30 30 60 60 60 9 0 26 -7 38
-16z m7944 -81 c38 -34 11 -103 -40 -103 -54 0 -81 62 -45 102 20 22 61 23 85
1z m-8280 -216 c20 -32 -6 -87 -41 -87 -28 0 -61 30 -61 55 0 46 78 70 102 32z
m2241 -144 c4 -2 7 -15 7 -28 0 -31 -46 -67 -79 -63 -21 2 -27 9 -29 36 -5 47
22 75 62 66 17 -3 34 -8 39 -11z m1033 -398 c39 -39 16 -95 -39 -95 -61 0 -86
53 -45 97 28 30 53 29 84 -2z m5528 -26 c31 -25 33 -47 5 -83 -23 -29 -54 -33
-87 -10 -36 25 -25 92 18 107 27 10 37 7 64 -14z m-7557 -15 c13 -33 -50 -91
-86 -79 -16 5 -21 14 -21 44 0 21 3 41 7 44 3 4 26 7 50 7 31 0 45 -5 50 -16z
m6956 -382 c10 -21 8 -27 -16 -48 -35 -30 -41 -30 -65 1 -24 30 -18 63 12 74
30 12 56 2 69 -27z m-4762 -145 c30 -24 38 -49 23 -78 -22 -43 -66 -52 -104
-21 -61 49 19 147 81 99z m-4022 -132 c38 -19 48 -60 23 -94 -32 -44 -92 -40
-116 7 -17 33 -4 67 35 88 30 17 25 17 58 -1z m3059 -117 c20 -20 14 -45 -19
-72 -33 -28 -46 -31 -68 -17 -18 11 -19 65 -1 85 15 19 71 21 88 4z m6476
-118 c33 -12 33 -34 1 -65 -45 -46 -103 -22 -88 36 10 39 37 48 87 29z m-8666
-362 c18 -18 15 -36 -13 -63 -15 -16 -36 -25 -55 -25 -29 0 -30 2 -30 43 0 24
3 47 7 50 11 12 78 8 91 -5z m7995 -40 l21 -28 -21 -27 c-37 -51 -113 -34
-113 25 0 63 74 82 113 30z m-5019 -34 c21 -20 20 -43 -1 -66 -20 -22 -41 -23
-65 -1 -23 21 -23 38 2 63 24 24 43 25 64 4z m-1866 -160 c29 -8 28 -32 -5
-66 -54 -57 -119 -16 -83 53 11 19 44 24 88 13z m2458 -25 c82 -11 192 -26
244 -33 125 -18 208 -49 222 -84 7 -19 9 -404 6 -1231 -6 -1299 -2 -1225 -58
-1215 -14 2 -78 8 -144 13 -80 6 -121 14 -127 23 -5 7 -9 199 -9 426 l0 412
-39 0 c-22 0 -43 -5 -47 -11 -3 -6 -6 -190 -5 -409 2 -297 -1 -400 -10 -405
-16 -10 -185 -6 -215 5 l-24 10 0 1260 0 1260 29 0 c15 0 95 -9 177 -21z
m5072 -81 c25 -25 1 -88 -34 -88 -20 0 -44 30 -44 55 0 37 52 59 78 33z
m-9533 -83 c32 -31 32 -65 0 -99 -47 -50 -119 -21 -119 49 0 69 71 99 119 50z
m3621 -50 c15 -23 15 -27 0 -50 -30 -46 -86 -25 -86 32 0 46 59 59 86 18z
m6245 -374 c17 -18 29 -40 29 -56 0 -36 -41 -75 -80 -75 -39 0 -80 39 -80 75
0 32 50 85 80 85 12 0 35 -13 51 -29z m-573 -3 c21 -21 14 -66 -12 -83 -47
-31 -104 23 -76 74 12 24 68 29 88 9z m-5338 -968 l0 -930 -287 2 -288 3 -3
278 -2 277 -57 0 -56 0 6 -275 c7 -258 6 -275 -11 -284 -25 -13 -139 -18 -151
-6 -6 6 -11 200 -12 503 -1 271 -6 495 -10 498 -5 2 -26 -7 -49 -21 l-40 -25
-2 -482 -3 -483 -40 -6 c-69 -12 -164 -14 -174 -4 -5 6 -10 254 -12 583 l-4
573 35 29 c39 32 533 330 695 420 102 56 317 192 375 236 100 77 90 172 90
-886z m-3430 830 c24 -24 25 -47 3 -72 -46 -51 -114 12 -72 66 25 31 42 33 69
6z m8338 -148 c29 -38 0 -92 -49 -92 -57 0 -78 89 -26 110 27 11 58 3 75 -18z
m-6628 -202 c11 -11 21 -26 22 -32 2 -7 3 -186 3 -398 l0 -385 50 -3 c27 -2
55 -8 62 -14 10 -8 13 -82 13 -323 0 -360 7 -336 -99 -346 -36 -4 -101 -10
-143 -14 l-78 -8 0 197 c0 126 -4 196 -10 196 -6 0 -26 -10 -45 -22 l-35 -23
0 -167 c0 -91 -3 -173 -6 -181 -6 -17 -132 -44 -158 -34 -14 6 -16 38 -16 271
l0 264 29 24 c16 12 86 58 155 101 l126 79 0 392 c0 383 1 394 21 420 26 33
79 36 109 6z m-2102 -76 c29 -33 28 -69 -3 -99 -51 -51 -135 -21 -135 48 1 38
17 63 51 76 32 13 59 5 87 -25z m896 -114 c33 -12 36 -58 6 -85 -17 -15 -24
-16 -45 -7 -36 17 -44 60 -15 84 26 21 22 21 54 8z m-444 -36 c6 -14 10 -34
10 -45 0 -24 -43 -69 -65 -69 -25 0 -65 46 -65 75 0 36 33 65 75 65 29 0 37
-5 45 -26z m8108 -246 c17 -17 15 -64 -4 -82 -37 -37 -94 -11 -94 43 0 42 68
69 98 39z m-1121 -159 c35 -12 80 -32 100 -46 140 -96 516 -343 721 -473 133
-85 272 -176 307 -202 l65 -48 0 -610 c0 -515 -2 -611 -14 -616 -15 -6 -81 24
-128 58 l-28 19 0 464 c0 517 6 474 -69 518 l-31 18 0 -470 c0 -295 -4 -472
-10 -476 -10 -6 -184 77 -212 102 -17 15 -18 53 -18 524 l0 509 -41 20 c-23
11 -46 17 -52 13 -7 -4 -8 -163 -3 -488 3 -266 3 -490 0 -499 -3 -9 -12 -16
-18 -16 -7 0 -82 32 -167 71 -153 71 -422 181 -574 236 l-80 29 -3 683 c-2
529 1 687 10 699 17 19 159 8 245 -19z m-6167 -198 c17 -32 11 -60 -15 -77
-23 -15 -27 -15 -51 0 -34 23 -39 41 -20 71 21 31 70 35 86 6z m-870 -471 c26
-26 25 -50 0 -78 -24 -26 -47 -28 -78 -6 -44 31 -16 104 40 104 10 0 27 -9 38
-20z"/>
<path d="M11903 5342 l-33 -16 0 -530 0 -531 30 45 c16 25 32 59 35 75 3 17 4
242 3 501 l-3 471 -32 -15z"/>
<path d="M6181 4661 c-8 -14 -6 -23 9 -36 18 -16 21 -17 45 -1 29 19 30 20 9
40 -21 22 -51 20 -63 -3z"/>
<path d="M5008 4481 c-110 -36 -188 -96 -188 -147 0 -17 7 -25 26 -30 87 -22
384 68 474 145 24 21 25 21 6 36 -30 23 -242 20 -318 -4z"/>
<path d="M6582 4465 c-74 -32 -1 -95 93 -80 41 6 75 29 75 51 0 40 -102 57
-168 29z"/>
<path d="M7487 4455 c-58 -16 -97 -40 -97 -61 0 -28 87 -57 170 -58 83 0 138
15 165 44 17 19 17 21 0 40 -20 23 -108 50 -157 49 -18 0 -55 -7 -81 -14z"/>
<path d="M3713 4414 c-3 -8 -2 -19 3 -24 13 -12 54 7 54 25 0 20 -49 20 -57
-1z"/>
<path d="M9072 4318 c-21 -21 -13 -38 18 -38 23 0 30 5 30 19 0 10 -7 22 -16
25 -20 8 -18 8 -32 -6z"/>
<path d="M8355 4306 c-54 -13 -110 -40 -120 -57 -10 -14 23 -48 65 -67 26 -11
67 -15 160 -15 106 0 132 3 173 21 84 38 76 75 -24 109 -73 25 -176 28 -254 9z"/>
<path d="M3459 4235 c-38 -21 -45 -46 -19 -67 27 -22 62 -23 106 -2 41 20 54
52 28 71 -23 17 -82 16 -115 -2z"/>
<path d="M9414 4135 c-4 -9 -2 -21 4 -27 16 -16 47 -5 47 17 0 26 -42 34 -51
10z"/>
<path d="M8611 3850 c-44 -11 -85 -42 -89 -68 -6 -42 101 -73 186 -52 86 20
118 81 57 108 -35 16 -114 22 -154 12z"/>
<path d="M10343 3778 c-80 -39 16 -117 109 -89 58 18 73 67 27 91 -23 13 -108
12 -136 -2z"/>
<path d="M6530 3670 c-183 -39 -279 -98 -266 -164 11 -53 61 -88 177 -125 46
-14 213 -14 281 0 116 25 200 83 219 152 8 31 7 43 -6 63 -47 72 -246 108
-405 74z"/>
<path d="M10752 3431 c-8 -4 -12 -19 -10 -32 4 -29 45 -34 61 -7 19 30 -19 60
-51 39z"/>
<path d="M4605 3085 c-88 -26 -173 -73 -200 -113 -33 -48 -32 -74 5 -116 43
-48 109 -68 228 -69 126 0 193 24 269 97 48 47 53 56 53 95 0 76 -60 109 -215
116 -59 2 -107 -1 -140 -10z"/>
<path d="M9814 2905 c-10 -25 4 -45 31 -45 30 0 43 24 25 45 -16 19 -49 19
-56 0z"/>
<path d="M8915 2524 c-140 -33 -205 -75 -205 -131 0 -36 47 -84 110 -111 107
-45 306 -48 432 -6 60 20 118 72 118 106 0 46 -60 93 -159 124 -45 15 -257 28
-296 18z"/>
<path d="M5575 2506 c-81 -20 -158 -60 -175 -90 -12 -24 -12 -31 1 -54 42 -76
278 -124 431 -88 167 40 209 133 86 194 -101 51 -233 65 -343 38z"/>
<path d="M6432 2498 c2 -15 10 -23 23 -23 13 0 21 8 23 23 3 18 -1 22 -23 22
-22 0 -26 -4 -23 -22z"/>
<path d="M7049 2253 c-42 -22 -55 -34 -57 -54 -3 -23 4 -30 49 -53 93 -46 227
-30 284 33 25 29 14 48 -45 79 -66 33 -159 31 -231 -5z"/>
<path d="M7932 2212 c-44 -21 -41 -57 7 -89 43 -29 75 -29 131 0 60 30 64 56
12 85 -47 26 -103 28 -150 4z"/>
<path d="M10779 12937 c-51 -81 -51 -83 -23 -102 75 -49 158 69 88 124 -15 12
-29 21 -33 21 -3 0 -18 -19 -32 -43z"/>
<path d="M11077 12635 c-20 -14 -37 -28 -37 -31 0 -6 53 -53 60 -54 6 0 30 82
30 100 0 16 -12 12 -53 -15z"/>
<path d="M11695 12243 c-118 -62 -175 -201 -109 -267 37 -37 87 -35 148 5 63
42 108 109 114 170 4 43 1 51 -26 79 -35 34 -78 39 -127 13z"/>
<path d="M2970 12076 c0 -2 6 -19 14 -37 7 -19 16 -43 20 -53 6 -18 9 -17 36
9 17 16 30 32 30 35 0 3 -20 16 -45 28 -46 22 -55 25 -55 18z"/>
<path d="M12031 11906 l-53 -53 28 -22 c32 -25 61 -27 92 -5 38 26 45 50 27
88 -9 19 -22 37 -29 39 -8 3 -37 -18 -65 -47z"/>
<path d="M2668 11899 c-16 -11 -28 -26 -28 -33 0 -7 24 -33 54 -59 l55 -47 20
26 c25 32 26 52 5 82 -12 18 -64 53 -76 52 -2 0 -15 -10 -30 -21z"/>
<path d="M11004 2413 c2 -10 10 -37 17 -60 7 -24 14 -43 16 -43 8 0 63 44 63
50 0 4 -23 21 -51 39 -40 24 -49 27 -45 14z"/>
<path d="M10129 1965 l-27 -15 35 -65 c19 -36 39 -65 44 -65 6 0 21 11 34 25
31 30 32 73 4 109 -23 29 -51 32 -90 11z"/>
<path d="M8960 1355 c0 -30 4 -55 10 -55 8 0 57 19 69 26 5 4 -62 84 -71 84
-4 0 -8 -25 -8 -55z"/>
<path d="M5310 1647 c0 -2 -14 -42 -31 -88 -70 -193 -74 -208 -59 -223 8 -8
33 -17 55 -20 90 -14 158 65 159 186 1 58 -2 70 -24 93 -33 35 -100 70 -100
52z"/>
<path d="M6486 1221 c-31 -59 -26 -71 28 -71 31 0 31 1 9 90 l-9 34 -28 -53z"/>
<path d="M8068 1325 c-103 -57 -51 -335 64 -335 91 0 132 88 103 218 -13 58
-23 77 -51 102 -38 33 -73 38 -116 15z"/>
</g>
</svg>
