<?xml version="1.0" encoding="UTF-8"?><svg id="Layer_2" xmlns="http://www.w3.org/2000/svg" viewBox="0 0 200 39.18"><defs><style>.cls-1{fill:#355e93;}.cls-1,.cls-2{stroke-width:0px;}.cls-2{fill:#c12033;}</style></defs><g id="Layer_1-2"><path class="cls-1" d="M47.7,34.4c-.39.18-.96,0-1.55-.04.19-.35.34-.65.5-.95-.03-.04-.06-.08-.09-.12-.22.13-.48.22-.64.4-.89.97-2.01,1.24-3.28,1.24-.74,0-1.55-.28-2.18.4-.05.06-.21.08-.29.05-1.12-.47-1.97.27-3.11.72.33-.47.56-.8.81-1.17-.21-.33-.42-.67-.66-1.04.13-.14.22-.33.37-.38.95-.35.9-1.1.88-1.92-.06-4.02.44-7.98,1.45-11.87.05-.2.1-.4.11-.61.05-2.28.1-4.56.15-6.85,0-.09-.04-.19-.06-.27-.31.09-.58.17-.86.25-.06-.35-.17-.71-.17-1.06,0-.94.02-1.88.07-2.83.02-.35.07-.71.15-1.05.25-1.01.53-2,.78-3.01.02-.08,0-.24-.07-.28-.93-.64-.53-1.42-.23-2.24-.94-.53-.17-1.17-.09-1.78h-9.11c0,.05,0,.1,0,.15-2.62.86-4.6,2.54-6.2,4.73-.33.45-.66.81-1.32.74-.23-.03-.54.25-.74.46-.37.38-.68.82-1.06,1.3.51.51,1.03,1.03,1.63,1.62-1.13.2-1.27.6-.75,1.53.47.83.25,1.69-.68,1.93-1.05.27-1.74.94-2.43,1.66-.65.67-1.41.99-2.36.82-.38-.07-.79-.13-1.15-.05-1.26.28-2.32-.16-3.35-.8-.23-.14-.52-.28-.76-.26-1.54.11-3.07.24-4.61.4-1.65.17-2.51,1.82-1.72,3.24.24.42.48.85.74,1.25.29.44.19.73-.24,1.02-1.7,1.15-3.38,2.32-5.06,3.49-.2.14-.47.35-.48.54-.06.65-.02,1.31-.02,2,.32,0,.5,0,.68,0,.44,0,.88,0,1.32,0-.87.7-1.24,1.31-.96,1.87.02.04.04.08.07.12.03.04.06.08.1.12.01.01.02.02.03.04.03.03.05.05.08.08.01.01.03.02.04.04.03.02.06.05.09.07.01,0,.03.02.04.03.05.03.09.06.14.08,0,0,0,0,.01,0,.05.02.09.05.14.07.02,0,.03.01.05.02.04.02.08.03.12.04.02,0,.04.01.06.02.05.01.09.03.14.04.02,0,.03,0,.05.01.07.01.14.03.21.04,0,0,.02,0,.02,0,.06,0,.13.02.19.02.02,0,.04,0,.07,0,.06,0,.11,0,.17,0,.02,0,.05,0,.07,0,.07,0,.14,0,.21,0,.01,0,.03,0,.04,0,.09,0,.18,0,.27-.01,0,0,.02,0,.03,0,.08,0,.16-.01.25-.02.02,0,.05,0,.07,0,.08,0,.15-.02.23-.03.02,0,.05,0,.07,0,.09-.01.19-.03.29-.04,0,0,0,0,.01,0,.11-.02.22-.04.33-.06,0,0,.01,0,.02,0,.1-.02.2-.04.31-.06.02,0,.04,0,.06-.01.1-.02.19-.04.29-.07.02,0,.04,0,.06-.01.24-.06.49-.12.74-.2,0,0,0,0,0,0,.12-.03.24-.07.37-.11.02,0,.04-.01.05-.02.12-.04.24-.07.36-.11.01,0,.02,0,.03-.01.41-.13.83-.28,1.27-.44.01,0,.03-.01.04-.02.14-.05.28-.11.43-.16,0,0,0,0,0,0,.45-.18.92-.37,1.4-.57.01,0,.02,0,.03-.01.48-.21.98-.43,1.48-.67,3.21-1.5,6.86-3.59,10.61-6.12,8.63-5.83,14.91-12.12,15.55-15.32.02-.21.04-.41.05-.61,0,.19,0,.39-.05.61-.6,5.26-5.17,13.19-12.3,20.6-.29.3-.58.6-.87.89.28,0,.55,0,.83,0,1.18,0,2.24-.02,2.73,1.31.17.45.34.9.52,1.35.25.63.38,1.39.81,1.86.49.53,1.6.34,1.8,1.35,1.35.79,2.67,1.61,4.05,2.35.52.28.79.74.66,1.17-.23.76-.61,1.49-1.05,2.16-.3.46-.81.76-1.19,1.17-.12.13-.11.37-.16.55.2-.03.42-.01.6-.08.4-.16.76-.48,1.16-.53,1.9-.25,3.82-.41,5.72-.65.41-.05.82-.27,1.2-.46,1.01-.49,2-1.04,3.03-1.48,1.11-.47,2.26-.84,3.39-1.25v-.31c-.37-.19-.67-.22-1.12-.02ZM11.18,16.55l-.21.38-.21-.38-.38-.21.38-.21.21-.38.21.38.38.21-.38.21ZM17.18,19.48l-.42.77-.42-.77-.77-.42.77-.42.42-.77.42.77.77.42-.77.42ZM20.99,15.15l-.16.3-.16-.3-.3-.16.3-.16.16-.3.16.3.3.16-.3.16ZM23.66,16.39l-.16.3-.16-.3-.3-.16.3-.16.16-.3.16.3.3.16-.3.16ZM32.37,4.79l-.16.3-.16-.3-.3-.16.3-.16.16-.3.16.3.3.16-.3.16ZM35.54,2.8l-.16.3-.16-.3-.3-.16.3-.16.16-.3.16.3.3.16-.3.16ZM34.02,25.21l-.09.17-.09-.17-.17-.09.17-.1.09-.17.09.17.17.1-.17.09ZM35.42,27.69l-.24.45-.24-.45-.45-.24.45-.24.24-.45.24.45.45.24-.45.24ZM36.97,36.29s.02-.02.03-.03c0,0,0,0,0,0,0,0-.02.02-.03.02ZM37.35,13.82l.17-.3.17.3.3.17-.3.17-.17.3-.17-.3-.3-.17.3-.17Z"/><path class="cls-2" d="M45.89,1.06h.57l1.56,2.71.47.89h.03c-.03-.43-.07-.92-.07-1.37V1.06h.52v4.31h-.57l-1.56-2.71-.47-.89h-.03c.03.44.07.9.07,1.35v2.26h-.52V1.06Z"/><path class="cls-2" d="M52,1.06h2.48v.46h-1.94v1.35h1.63v.46h-1.63v1.57h2v.46h-2.55V1.06Z"/><path class="cls-2" d="M56.89,1.06h.57l.45,2.35c.08.46.17.93.25,1.39h.03c.1-.46.2-.93.3-1.39l.6-2.35h.5l.6,2.35c.1.46.21.92.31,1.39h.03c.08-.47.16-.93.24-1.39l.45-2.35h.53l-.89,4.31h-.66l-.65-2.59c-.07-.34-.14-.65-.21-.98h-.03c-.07.33-.14.64-.22.98l-.64,2.59h-.65l-.91-4.31Z"/><path class="cls-2" d="M68.23,3.7l-1.3-2.64h.59l.56,1.22c.14.32.27.62.42.94h.03c.15-.32.3-.62.43-.94l.56-1.22h.57l-1.3,2.64v1.67h-.55v-1.67Z"/><path class="cls-2" d="M72.17,3.2c0-1.38.76-2.22,1.84-2.22s1.84.84,1.84,2.22-.76,2.25-1.84,2.25-1.84-.87-1.84-2.25ZM75.29,3.2c0-1.07-.51-1.74-1.28-1.74s-1.28.66-1.28,1.74.51,1.77,1.28,1.77,1.28-.69,1.28-1.77Z"/><path class="cls-2" d="M78.65,1.06h1.35c.88,0,1.51.32,1.51,1.21s-.63,1.28-1.51,1.28h-.8v1.82h-.55V1.06ZM79.92,3.11c.67,0,1.04-.27,1.04-.83s-.37-.77-1.04-.77h-.72v1.6h.72ZM79.89,3.4l.43-.28,1.31,2.26h-.62l-1.12-1.97Z"/><path class="cls-2" d="M84.24,1.06h.55v2.16h.02l1.79-2.16h.62l-1.35,1.64,1.56,2.67h-.61l-1.29-2.24-.74.88v1.36h-.55V1.06Z"/><path class="cls-2" d="M92.84,3.22c0-1.39.82-2.24,1.91-2.24.52,0,.93.25,1.19.53l-.3.36c-.23-.24-.51-.41-.88-.41-.81,0-1.36.67-1.36,1.74s.52,1.76,1.33,1.76c.41,0,.72-.18,1-.48l.3.34c-.34.4-.76.62-1.32.62-1.07,0-1.88-.83-1.88-2.23Z"/><path class="cls-2" d="M98.26,3.2c0-1.38.76-2.22,1.84-2.22s1.84.84,1.84,2.22-.76,2.25-1.84,2.25-1.84-.87-1.84-2.25ZM101.37,3.2c0-1.07-.51-1.74-1.28-1.74s-1.28.66-1.28,1.74.51,1.77,1.28,1.77,1.28-.69,1.28-1.77Z"/><path class="cls-2" d="M104.73,1.06h.57l1.56,2.71.47.89h.03c-.03-.43-.07-.92-.07-1.37V1.06h.52v4.31h-.57l-1.56-2.71-.47-.89h-.03c.03.44.07.9.07,1.35v2.26h-.52V1.06Z"/><path class="cls-2" d="M110.53,4.81l.33-.38c.31.32.74.53,1.19.53.57,0,.9-.28.9-.7,0-.44-.31-.58-.72-.76l-.62-.27c-.4-.17-.87-.48-.87-1.11s.57-1.14,1.36-1.14c.51,0,.97.22,1.27.53l-.29.35c-.26-.25-.58-.4-.98-.4-.48,0-.8.24-.8.63,0,.42.38.57.71.71l.61.27c.5.21.89.51.89,1.15,0,.68-.56,1.22-1.47,1.22-.6,0-1.13-.25-1.51-.64Z"/><path class="cls-2" d="M115.96,3.2c0-1.38.76-2.22,1.84-2.22s1.84.84,1.84,2.22-.76,2.25-1.84,2.25-1.84-.87-1.84-2.25ZM119.08,3.2c0-1.07-.51-1.74-1.28-1.74s-1.28.66-1.28,1.74.51,1.77,1.28,1.77,1.28-.69,1.28-1.77Z"/><path class="cls-2" d="M122.43,1.06h1.35c.88,0,1.51.32,1.51,1.21s-.63,1.28-1.51,1.28h-.8v1.82h-.55V1.06ZM123.7,3.11c.67,0,1.04-.27,1.04-.83s-.37-.77-1.04-.77h-.72v1.6h.72ZM123.67,3.4l.43-.28,1.31,2.26h-.62l-1.12-1.97Z"/><path class="cls-2" d="M128.84,1.53h-1.3v-.46h3.16v.46h-1.3v3.85h-.55V1.53Z"/><path class="cls-2" d="M133.32,1.06h.55v4.31h-.55V1.06Z"/><path class="cls-2" d="M136.9,3.59V1.06h.55v2.54c0,1.04.44,1.36,1,1.36s1.02-.33,1.02-1.36V1.06h.53v2.53c0,1.38-.67,1.86-1.55,1.86s-1.55-.48-1.55-1.86Z"/><path class="cls-2" d="M143.01,1.06h.66l.83,2.3c.1.29.2.6.31.9h.03c.1-.3.19-.6.3-.9l.82-2.3h.66v4.31h-.51v-2.37c0-.38.04-.89.07-1.27h-.03l-.34.98-.81,2.23h-.36l-.82-2.23-.34-.98h-.03c.03.38.07.9.07,1.27v2.37h-.5V1.06Z"/><path class="cls-2" d="M154.55.47c.08.06.12.14.12.25,0,.06-.02.12-.06.18-.04.06-.1.09-.19.09-.09,0-.16-.03-.21-.09-.05-.06-.07-.14-.07-.24-.03-.02-.08-.03-.15-.03-.21,0-.35.12-.44.37s-.15.61-.19,1.09h.93l-.02.26h-.93s-.02.38-.02.38c-.03.51-.05.88-.07,1.1l-.04.47c-.05.64-.11,1.15-.18,1.53-.07.37-.2.69-.39.95-.19.26-.47.39-.85.39-.17,0-.29-.03-.38-.09-.09-.06-.13-.14-.13-.26,0-.06.02-.12.07-.18.04-.06.11-.09.19-.09s.15.03.2.08c.05.05.07.13.07.22.05.03.11.05.19.05.16,0,.28-.09.36-.26.08-.17.14-.4.18-.67.03-.28.07-.68.11-1.23.03-.44.05-.76.07-.97l.04-.47c.02-.33.05-.64.08-.93h-.58s.03-.28.03-.28h.58c.08-.54.22-.96.41-1.26.2-.3.5-.45.92-.45.15,0,.27.03.35.09Z"/><path class="cls-2" d="M157.98,2.19c.19.11.34.28.45.5.11.22.16.47.16.77,0,.36-.06.69-.19.99-.13.3-.32.54-.56.73s-.53.27-.86.27c-.42,0-.73-.14-.94-.41s-.32-.63-.32-1.06c0-.36.07-.69.2-.98.13-.3.32-.53.56-.71s.53-.26.86-.26c.24,0,.45.06.64.17ZM156.73,2.47c-.14.14-.25.33-.33.56-.07.24-.11.5-.11.8,0,.36.06.68.18.96.12.27.31.41.58.41.22,0,.41-.09.55-.26.14-.17.25-.38.31-.63s.1-.49.1-.73c0-.37-.06-.68-.17-.94s-.32-.38-.6-.38c-.19,0-.36.07-.5.21Z"/><path class="cls-2" d="M163.07,2.12c.09.07.13.16.13.28,0,.08-.03.16-.09.22-.06.06-.13.1-.22.1-.08,0-.15-.02-.2-.07-.06-.05-.09-.12-.1-.2-.02,0-.04,0-.07,0-.18,0-.36.15-.54.44-.18.29-.32.65-.43,1.07-.11.42-.16.8-.16,1.15,0,.04,0,.13.01.28h-.54s0-.1,0-.17c0-.27.03-.72.11-1.35l.09-.76c.03-.23.04-.38.04-.45,0-.09-.01-.16-.04-.22-.02-.05-.07-.08-.14-.08-.08,0-.17.05-.26.16-.09.11-.16.26-.22.48l-.18-.04c.02-.12.07-.26.14-.4.07-.14.17-.27.29-.37.12-.1.26-.15.42-.15.17,0,.29.05.37.16.07.11.11.27.11.47s-.03.47-.1.79h.02c.18-.53.37-.9.58-1.11.21-.21.43-.32.66-.32.14,0,.25.03.33.1Z"/><path class="cls-2" d="M45.84,24.71h.59v5.61h-.59v-5.61Z"/><path class="cls-2" d="M54.16,24.71v5.61h-.49l-3.61-4.55v4.55h-.59v-5.61h.49l3.62,4.55v-4.55h.59Z"/><path class="cls-2" d="M61.88,24.71v5.61h-.49l-3.61-4.55v4.55h-.59v-5.61h.49l3.62,4.55v-4.55h.59Z"/><path class="cls-2" d="M64.41,27.52c0-1.64,1.25-2.85,2.95-2.85s2.94,1.21,2.94,2.85-1.26,2.85-2.94,2.85-2.95-1.22-2.95-2.85ZM69.71,27.52c0-1.34-1-2.33-2.35-2.33s-2.37.99-2.37,2.33,1.01,2.33,2.37,2.33,2.35-.99,2.35-2.33Z"/><path class="cls-2" d="M77.34,24.71l-2.49,5.61h-.59l-2.49-5.61h.64l2.15,4.88,2.16-4.88h.6Z"/><path class="cls-2" d="M82.7,28.82h-3.13l-.67,1.5h-.62l2.57-5.61h.59l2.57,5.61h-.63l-.67-1.5ZM82.48,28.34l-1.35-3.01-1.35,3.01h2.69Z"/><path class="cls-2" d="M86.94,25.22h-1.97v-.51h4.54v.51h-1.97v5.1h-.59v-5.1Z"/><path class="cls-2" d="M91.65,24.71h.59v5.61h-.59v-5.61Z"/><path class="cls-2" d="M94.78,27.52c0-1.64,1.25-2.85,2.95-2.85s2.94,1.21,2.94,2.85-1.26,2.85-2.94,2.85-2.95-1.22-2.95-2.85ZM100.08,27.52c0-1.34-1-2.33-2.35-2.33s-2.37.99-2.37,2.33,1.01,2.33,2.37,2.33,2.35-.99,2.35-2.33Z"/><path class="cls-2" d="M107.9,24.71v5.61h-.49l-3.61-4.55v4.55h-.59v-5.61h.49l3.62,4.55v-4.55h.59Z"/><path class="cls-2" d="M118.25,30.41l-.78-.8c-.47.51-1.11.76-1.88.76-1.1,0-1.88-.58-1.88-1.43,0-.67.38-1.15,1.41-1.75-.55-.56-.71-.9-.71-1.33,0-.71.55-1.19,1.42-1.19.79,0,1.31.42,1.31,1.11,0,.56-.34.95-1.25,1.48l1.54,1.59c.17-.3.3-.66.38-1.08l.47.14c-.1.51-.27.94-.5,1.29l.8.83-.33.38ZM117.13,29.26l-1.69-1.74c-.9.51-1.17.87-1.17,1.36,0,.61.55,1.01,1.36,1.01.61,0,1.12-.21,1.51-.63ZM114.95,25.86c0,.33.12.56.63,1.08.81-.47,1.07-.75,1.07-1.15s-.3-.7-.82-.7c-.56,0-.89.31-.89.76Z"/><path class="cls-2" d="M124.1,24.71h2.29c1.8,0,3.01,1.15,3.01,2.81s-1.21,2.81-3.01,2.81h-2.29v-5.61ZM126.36,29.81c1.49,0,2.45-.95,2.45-2.29s-.96-2.29-2.45-2.29h-1.66v4.59h1.66Z"/><path class="cls-2" d="M135.9,29.81v.51h-3.97v-5.61h3.85v.51h-3.26v2h2.9v.51h-2.9v2.08h3.38Z"/><path class="cls-2" d="M143.08,24.71l-2.49,5.61h-.59l-2.49-5.61h.64l2.15,4.88,2.16-4.88h.6Z"/><path class="cls-2" d="M149.06,29.81v.51h-3.97v-5.61h3.85v.51h-3.26v2h2.9v.51h-2.9v2.08h3.38Z"/><path class="cls-2" d="M151.66,24.71h.59v5.1h3.14v.51h-3.74v-5.61Z"/><path class="cls-2" d="M156.97,27.52c0-1.64,1.25-2.85,2.95-2.85s2.94,1.21,2.94,2.85-1.26,2.85-2.94,2.85-2.95-1.22-2.95-2.85ZM162.27,27.52c0-1.34-1-2.33-2.35-2.33s-2.37.99-2.37,2.33,1.01,2.33,2.37,2.33,2.35-.99,2.35-2.33Z"/><path class="cls-2" d="M169.8,26.63c0,1.19-.87,1.92-2.29,1.92h-1.51v1.77h-.59v-5.61h2.1c1.43,0,2.29.72,2.29,1.92ZM169.2,26.63c0-.9-.59-1.41-1.72-1.41h-1.49v2.81h1.49c1.12,0,1.72-.51,1.72-1.4Z"/><path class="cls-2" d="M178.11,24.71v5.61h-.57v-4.49l-2.21,3.78h-.28l-2.21-3.75v4.47h-.57v-5.61h.49l2.44,4.16,2.41-4.16h.49Z"/><path class="cls-2" d="M185.11,29.81v.51h-3.97v-5.61h3.85v.51h-3.26v2h2.9v.51h-2.9v2.08h3.38Z"/><path class="cls-2" d="M192.4,24.71v5.61h-.49l-3.61-4.55v4.55h-.59v-5.61h.49l3.62,4.55v-4.55h.59Z"/><path class="cls-2" d="M196.52,25.22h-1.97v-.51h4.54v.51h-1.97v5.1h-.59v-5.1Z"/><path class="cls-2" d="M45.81,20.69c-.35-.06-.5-.25-.47-.58v-.22c.04-.33.24-.51.6-.49,1.66.05,2.24.06,3.03.06,1.67,0,2.17-.52,2.17-1.67,0-1.04-.44-1.47-1.38-1.75l-2.29-.69c-1.68-.49-2.29-1.7-2.29-3.24,0-2.3,1.17-3,3.76-3,.92,0,1.99.05,3,.24.31.06.47.27.44.6v.21c-.04.33-.24.51-.57.49-.84-.04-1.91-.06-2.8-.06-1.56,0-2.17.25-2.17,1.56,0,.99.44,1.46,1.41,1.74l2.22.66c1.79.52,2.34,1.74,2.34,3.26,0,2.28-1.14,3.12-3.9,3.12-.65,0-1.77-.03-3.11-.24Z"/><path class="cls-2" d="M55.26,20.21v-9.98c0-.62.27-.96.82-.99.9-.07,1.73-.09,3.16-.09,2.92,0,3.89.79,3.89,3.61s-.98,3.62-3.69,3.62c-.85,0-1.65-.05-2.29-.11-.15-.01-.24.06-.24.21v3.72c0,.35-.18.53-.53.53h-.6c-.34,0-.53-.18-.53-.53ZM59.21,14.97c1.7-.02,2.25-.45,2.25-2.2s-.55-2.19-2.25-2.19c-.68,0-1.33.02-1.91.02-.29,0-.38.1-.38.38v3.77c0,.15.08.23.23.23h2.07Z"/><path class="cls-2" d="M64.24,20.73c-.39,0-.56-.23-.44-.6l3.3-10.15c.15-.45.45-.68.95-.68h1.17c.5,0,.8.23.95.68l3.32,10.15c.12.37-.05.6-.44.6h-.6c-.32,0-.51-.14-.6-.44l-.88-2.82c-.03-.14-.12-.2-.24-.2h-4.16c-.12,0-.21.06-.24.2l-.88,2.82c-.09.3-.29.44-.6.44h-.6ZM70.22,15.85c.17,0,.24-.11.2-.26l-1.27-4.09c-.07-.24-.16-.49-.23-.73-.03-.14-.11-.2-.24-.2h-.06c-.14,0-.21.06-.26.2-.07.24-.14.48-.21.73l-1.27,4.09c-.05.15.03.26.2.26h3.14Z"/><path class="cls-2" d="M74.96,15.02c0-4.36,1.2-5.92,4.53-5.92,1.21,0,1.92.07,2.69.22.32.07.47.29.42.62l-.03.27c-.05.33-.26.49-.59.46-.75-.06-1.39-.08-2.49-.08-2.11,0-2.78,1.08-2.78,4.44s.67,4.44,2.78,4.44c1.16,0,1.96-.02,2.72-.11.33-.03.54.12.59.46l.03.25c.05.31-.09.52-.41.6-.8.2-1.63.28-2.94.28-3.33,0-4.53-1.56-4.53-5.92Z"/><path class="cls-2" d="M87.3,20.73c-1.43,0-2.3-.77-2.31-2.02v-7.39c.01-1.25.9-2.02,2.31-2.02h4.39c.33,0,.5.24.48.61v.27c-.03.33-.23.51-.56.51h-4.04c-.65,0-.91.29-.91,1.06v2.07c0,.15.08.23.23.23h4.08c.35,0,.53.18.53.53v.28c0,.34-.18.52-.53.52h-4.08c-.15,0-.23.08-.23.23v2.7c0,.77.26,1.06.91,1.06h4.04c.33,0,.53.18.54.51v.26c.03.36-.13.61-.47.61h-4.39Z"/><path class="cls-2" d="M100.76,20.21v-9.2c0-.15-.08-.23-.23-.23h-2.85c-.35,0-.53-.18-.53-.53v-.42c0-.35.18-.53.53-.53h7.85c.35,0,.53.18.53.53v.42c0,.34-.18.53-.53.53h-2.87c-.15,0-.23.08-.23.23v9.2c0,.35-.18.53-.53.53h-.62c-.34,0-.53-.18-.53-.53Z"/><path class="cls-2" d="M110.28,20.73c-1.42,0-2.3-.77-2.31-2.02v-7.39c.01-1.25.9-2.02,2.31-2.02h4.39c.33,0,.5.24.48.61v.27c-.03.33-.23.51-.56.51h-4.04c-.65,0-.91.29-.91,1.06v2.07c0,.15.08.23.23.23h4.08c.35,0,.53.18.53.53v.28c0,.34-.18.52-.53.52h-4.08c-.15,0-.23.08-.23.23v2.7c0,.77.26,1.06.91,1.06h4.04c.33,0,.53.18.54.51v.26c.03.36-.13.61-.47.61h-4.39Z"/><path class="cls-2" d="M117.09,15.02c0-4.36,1.2-5.92,4.53-5.92,1.21,0,1.92.07,2.69.22.32.07.47.29.42.62l-.03.27c-.05.33-.26.49-.59.46-.75-.06-1.39-.08-2.49-.08-2.11,0-2.78,1.08-2.78,4.44s.67,4.44,2.78,4.44c1.16,0,1.96-.02,2.72-.11.33-.03.54.12.59.46l.03.25c.05.31-.09.52-.41.6-.8.2-1.63.28-2.94.28-3.33,0-4.53-1.56-4.53-5.92Z"/><path class="cls-2" d="M127.75,20.73c-.34,0-.53-.18-.53-.53v-10.38c0-.34.18-.53.53-.53h.6c.34,0,.53.18.53.53v3.86c0,.15.08.23.23.23h4.56c.15,0,.23-.08.23-.23v-3.86c0-.34.18-.53.53-.53h.6c.34,0,.53.18.53.53v10.38c0,.34-.18.53-.53.53h-.6c-.34,0-.53-.18-.53-.53v-4.63c0-.15-.08-.23-.23-.23h-4.56c-.15,0-.23.08-.23.23v4.63c0,.34-.18.53-.53.53h-.6,0Z"/><path class="cls-2" d="M138.56,20.21v-10.08c0-.55.29-.83.83-.83h1.13c.48,0,.77.2.97.63l3.44,7.49c.2.46.42.91.62,1.36.05.1.08.14.18.14.08,0,.13-.07.13-.2v-8.9c.01-.35.19-.53.54-.53h.59c.34,0,.53.18.53.53v10.08c0,.55-.29.83-.83.83h-1.15c-.48,0-.77-.2-.97-.63l-3.48-7.55c-.2-.44-.4-.87-.59-1.31-.05-.09-.08-.14-.17-.14-.08,0-.13.08-.13.2v1.36l.03,7.54c0,.34-.18.53-.53.53h-.6c-.34,0-.53-.18-.53-.53Z"/><path class="cls-2" d="M150.1,15.02c0-4.49,1.19-5.93,4.57-5.93s4.57,1.44,4.57,5.93-1.19,5.93-4.57,5.93-4.57-1.44-4.57-5.93ZM157.5,15.02c0-3.37-.69-4.45-2.83-4.45s-2.83,1.08-2.83,4.45.69,4.45,2.83,4.45,2.83-1.08,2.83-4.45Z"/><path class="cls-2" d="M161.8,18.51v-8.68c0-.34.18-.53.53-.53h.6c.34,0,.53.18.53.53v8.46c0,.77.29,1.06,1.06,1.06h3.55c.33,0,.53.18.54.51v.27c.03.33-.13.61-.47.61h-3.89c-1.83,0-2.44-.93-2.44-2.22Z"/><path class="cls-2" d="M169.97,15.02c0-4.49,1.19-5.93,4.57-5.93s4.57,1.44,4.57,5.93-1.19,5.93-4.57,5.93-4.57-1.44-4.57-5.93ZM177.37,15.02c0-3.37-.69-4.45-2.83-4.45s-2.83,1.08-2.83,4.45.69,4.45,2.83,4.45,2.83-1.08,2.83-4.45Z"/><path class="cls-2" d="M184.88,20.89c-2.54,0-3.58-1.86-3.58-5.92,0-4.57,1.27-5.89,4.87-5.89.92,0,1.83.07,2.69.25.32.06.47.27.42.6l-.03.25c-.05.33-.24.49-.57.47-.9-.07-1.77-.1-2.41-.1-2.39,0-3.22.56-3.22,4.52,0,3.22.58,4.35,2.3,4.35,1.01,0,1.8-.26,2.54-.57.11-.05.17-.14.17-.26v-3.95c0-.34.18-.53.53-.53h.56c.35,0,.53.18.53.53v5.55c0,.34-.18.53-.52.53h-.22c-.32,0-.51-.15-.57-.47v-.13c-.04-.17-.16-.21-.3-.12-.69.43-1.78.87-3.17.87h0Z"/><path class="cls-2" d="M195.34,20.73c-.34,0-.53-.18-.53-.53v-3.31c0-.11-.01-.18-.06-.29l-3.4-6.7c-.18-.36-.03-.62.38-.62h.63c.3,0,.5.12.62.39l2.11,4.31c.18.37.34.77.44,1.14.03.12.04.18.13.18s.09-.06.12-.18c.1-.38.26-.77.44-1.14l2.11-4.31c.12-.27.32-.39.62-.39h.6c.41,0,.57.26.38.62l-3.39,6.72c-.05.11-.06.18-.06.29v3.28c0,.34-.18.53-.53.53h-.6Z"/></g></svg>